# xmcd CD database file
#
# Track frame offsets:
#	150
#	20921
#	37068
#	68273
#
# Disc length: 1185 seconds
#
# Revision: 0
# Processed by: cddbd v1.5.1PL0 Copyright (c) Steve Scherf et al.
# Submitted via: CDex 1.51
#
DISCID=2e049f04
DTITLE=岡村靖幸 - モン・シロ
DYEAR=2004
DGENRE=J-Pop
TTITLE0=モン・シロ
TTITLE1=未完成
TTITLE2=セッション(@Zepp Tokyo)
TTITLE3=モン･シロ(Instrumental)
EXTD=YEAR: 2004
EXTT0=
EXTT1=
EXTT2=
EXTT3=
PLAYORDER=
